<svg width="158" height="27" viewBox="0 0 158 27" fill="none" xmlns="http://www.w3.org/2000/svg">
<g filter="url(#filter0_d_1_469)">
<path d="M17.15 5.87503C17.15 2.85003 14.725 0.500025 11.7 0.500025H4.22498V18H12.425C16 18 17.85 15.525 17.875 12.475C17.875 10.925 17.2 9.62503 15.775 8.90003C16.625 8.20003 17.15 6.92503 17.15 5.87503ZM12.1 11.05C13.9 11.05 13.925 14.025 12.125 14.025H8.54998V11.05H12.1ZM11.35 4.50003C13.15 4.50003 13.15 7.32503 11.375 7.32503H8.54998V4.50003H11.35Z" fill="black"/>
<path d="M31.8136 9.40003V18C33.3636 18 34.9136 18 36.4386 18V0.425025H34.8136L25.9636 9.07503V0.500025C24.4386 0.500025 22.9136 0.500025 21.3886 0.500025V18.025H22.9886L31.8136 9.40003Z" fill="black"/>
<path d="M52.0443 18H56.4193V17.35L48.5193 0.275024H46.5943L38.7193 17.35V18H43.0943L44.1193 15.8H51.0193L52.0443 18ZM49.5693 11.975H45.5693L47.5443 7.37503L49.5693 11.975Z" fill="black"/>
<path d="M63.1922 18V13.525H66.4172C74.7922 13.525 74.7922 0.525024 66.4172 0.500025C63.8422 0.500025 61.2422 0.500025 58.7172 0.500025C58.7172 6.35003 58.7172 12.175 58.7172 18C60.1922 18 61.6922 18 63.1922 18ZM66.3922 9.50003H63.1922C63.1922 8.07503 63.1922 5.92503 63.1922 4.50003C64.2172 4.50003 65.3422 4.47503 66.3922 4.50003C68.9922 4.52502 68.8422 9.50003 66.3922 9.50003Z" fill="black"/>
<path d="M77.1506 18H81.9756L90.2756 1.17502V0.500025H85.4256L82.4256 6.95002H82.3006L79.0006 0.500025H74.0006V1.17502L79.9006 11.875L77.1506 17.525V18Z" fill="black"/>
<path d="M92.7265 18H114.902V0.500025H110.327V13.875H106.102V0.500025H101.527V13.875H97.3015V0.500025H92.7265V18Z" fill="black"/>
<path d="M123.937 18V11.325C124.512 11.325 125.062 11.325 125.662 11.225L129.512 18H134.487V17.3L129.737 9.60003C133.212 7.37503 133.112 4.07502 133.112 0.500025C131.562 0.500025 130.037 0.500025 128.512 0.500025C128.512 3.77503 128.737 7.12502 124.262 7.12502H123.937V0.500025C122.387 0.500025 120.887 0.500025 119.387 0.500025V18C120.887 18 122.387 18 123.937 18Z" fill="black"/>
<path d="M149.237 18H153.612V17.35L145.712 0.275024H143.787L135.912 17.35V18H140.287L141.312 15.8H148.212L149.237 18ZM146.762 11.975H142.762L144.737 7.37503L146.762 11.975Z" fill="black"/>
</g>
<defs>
<filter id="filter0_d_1_469" x="0.224976" y="0.275024" width="157.387" height="25.75" filterUnits="userSpaceOnUse" color-interpolation-filters="sRGB">
<feFlood flood-opacity="0" result="BackgroundImageFix"/>
<feColorMatrix in="SourceAlpha" type="matrix" values="0 0 0 0 0 0 0 0 0 0 0 0 0 0 0 0 0 0 127 0" result="hardAlpha"/>
<feOffset dy="4"/>
<feGaussianBlur stdDeviation="2"/>
<feComposite in2="hardAlpha" operator="out"/>
<feColorMatrix type="matrix" values="0 0 0 0 0 0 0 0 0 0 0 0 0 0 0 0 0 0 0.25 0"/>
<feBlend mode="normal" in2="BackgroundImageFix" result="effect1_dropShadow_1_469"/>
<feBlend mode="normal" in="SourceGraphic" in2="effect1_dropShadow_1_469" result="shape"/>
</filter>
</defs>
</svg>
